<svg preserveAspectRatio="none" overflow="visible" style="display: block;" width="64" height="64" viewBox="0 0 64 64" fill="none" xmlns="http://www.w3.org/2000/svg">
<g id="Benefit Icon / 04" clip-path="url(#clip0_0_15)">
<path id="Benefit Icon / 04 / Shape / 01" d="M35.959 62.1444C27.9649 63.1911 19.8823 61.0212 13.4874 56.1113C7.09251 51.2015 2.90855 43.9536 1.85502 35.9604C0.808313 27.9664 2.97831 19.8837 7.88811 13.4888C12.7979 7.09394 20.0458 2.90998 28.039 1.85645C36.0331 0.809746 44.1157 2.97974 50.5106 7.88955C56.9055 12.7994 61.0895 20.0473 62.143 28.0404C63.1897 36.0345 61.0197 44.1171 56.1099 50.5121C51.2001 56.907 43.9522 61.0909 35.959 62.1444Z" stroke="#DFE94C" stroke-width="3.456"/>
<path id="Benefit Icon / 04 / Shape / 02" d="M35.9609 62.1436C30.7673 62.699 25.5624 61.2014 21.4581 57.9707C17.3539 54.7401 14.6757 50.0326 13.9957 44.8538C13.3157 39.675 14.6878 34.4357 17.819 30.255C20.9501 26.0743 25.5919 23.2838 30.7529 22.4796C35.9465 21.9242 41.1513 23.4218 45.2556 26.6525C49.3598 29.8831 52.038 34.5907 52.718 39.7694C53.398 44.9482 52.0259 50.1876 48.8948 54.3682C45.7636 58.5489 41.1218 61.3394 35.9609 62.1436Z" stroke="#DFE94C" stroke-width="3.456"/>
<path id="Benefit Icon / 04 / Shape / 03" d="M33.248 41.5201C28.0544 42.0755 22.8495 40.5779 18.7452 37.3473C14.641 34.1166 11.9628 29.4091 11.2828 24.2303C10.6028 19.0516 11.9749 13.8122 15.1061 9.63152C18.2372 5.45084 22.879 2.66034 28.04 1.85614C33.2336 1.30076 38.4384 2.79836 42.5427 6.02901C46.647 9.25966 49.3251 13.9672 50.0051 19.146C50.6851 24.3247 49.313 29.5641 46.1819 33.7448C43.0507 37.9254 38.4089 40.7159 33.248 41.5201Z" stroke="#DFE94C" stroke-width="3.456"/>
</g>
<defs>
<clipPath id="clip0_0_15">
<rect width="64" height="64" fill="white"/>
</clipPath>
</defs>
</svg>
