<svg preserveAspectRatio="none" overflow="visible" style="display: block;" width="64" height="64" viewBox="0 0 64 64" fill="none" xmlns="http://www.w3.org/2000/svg">
<g id="Benefit Icon / 01">
<path id="Benefit Icon / 01 / Shape / 01" d="M18.1763 56.9764C18.9593 57.9683 19.9895 58.7367 21.1635 59.2043C22.3374 59.6719 23.6138 59.8223 24.8643 59.6404L46.7203 56.4644C47.9707 56.2814 49.1509 55.7726 50.1423 54.989C51.1337 54.2054 51.9014 53.1747 52.3683 52.0004L60.5443 31.4884C61.0107 30.3147 61.1601 29.0389 60.9775 27.7892C60.795 26.5395 60.2869 25.3597 59.5043 24.3684L45.8323 7.01643C45.0493 6.02453 44.0191 5.25616 42.8452 4.78854C41.6712 4.32092 40.3948 4.17051 39.1443 4.35243L17.2803 7.53643C16.0308 7.71868 14.8512 8.22633 13.8599 9.00845C12.8685 9.79057 12.1003 10.8196 11.6323 11.9924L3.4563 32.5124C2.98994 33.6862 2.84054 34.9619 3.02308 36.2117C3.20563 37.4614 3.7137 38.6411 4.4963 39.6324L18.1763 56.9764Z" stroke="#DFE94C" stroke-width="3.456"/>
<path id="Benefit Icon / 01 / Shape / 02" d="M21.7681 18.8881L25.8721 47.3681L48.4481 29.5201L21.7601 18.8801L21.7681 18.8881Z" stroke="#DFE94C" stroke-width="3.456"/>
<path id="Benefit Icon / 01 / Shape / 03" d="M21.5779 58.1525L26.4659 45.6565M47.5139 29.8485L59.9859 27.5125M14.7699 9.49645L22.5059 19.5925" stroke="#DFE94C" stroke-width="3.52512"/>
</g>
</svg>
