<svg preserveAspectRatio="none" overflow="visible" style="display: block;" width="32" height="32" viewBox="0 0 32 32" fill="none" xmlns="http://www.w3.org/2000/svg">
<g id="Streamline / artificial-intelligence-spark-solid" clip-path="url(#clip0_0_86)">
<path id="Streamline / artificial-intelligence-spark-solid / Shape" fill-rule="evenodd" clip-rule="evenodd" d="M22.2606 1.94285C22.6789 0.0342808 25.4011 0.0228522 25.8354 1.93142L25.8583 2.02285L25.8971 2.19885C26.4 4.33371 28.1257 5.96571 30.2903 6.34057C32.2834 6.688 32.2834 9.54971 30.2903 9.89714C29.2275 10.0833 28.2432 10.5788 27.4605 11.3216C26.6779 12.0644 26.1317 13.0215 25.8903 14.0731L25.8354 14.3086C25.4011 16.2149 22.6811 16.2057 22.2606 14.2926L22.2149 14.0914C21.9839 13.0358 21.4437 12.073 20.6634 11.3256C19.883 10.5782 18.8977 10.0801 17.8331 9.89485C15.8446 9.54742 15.8446 6.69028 17.8331 6.34514C18.8949 6.16077 19.8779 5.66522 20.6576 4.92133C21.4373 4.17745 21.9785 3.21876 22.2126 2.16685L22.2446 2.02057L22.2606 1.94285ZM19.7897 14.624C19.6666 14.0525 19.3764 13.5306 18.956 13.1244C18.5356 12.7182 18.0039 12.4462 17.4286 12.3429V28.8343C18.1837 29.8112 19.1888 30.5659 20.3376 31.0186C21.4864 31.4714 22.7361 31.6053 23.9548 31.4062C25.1734 31.2072 26.3156 30.6826 27.2606 29.8879C28.2056 29.0931 28.9183 28.0578 29.3234 26.8914C28.7147 26.8319 28.1166 26.6913 27.5451 26.4731C26.1851 25.9611 24.7063 24.9531 23.4926 23.1909C23.2777 22.8787 23.1956 22.4939 23.2644 22.1212C23.3332 21.7484 23.5472 21.4183 23.8594 21.2034C24.1716 20.9885 24.5564 20.9064 24.9291 20.9752C25.3018 21.044 25.632 21.2581 25.8469 21.5703C26.72 22.8389 27.7211 23.488 28.5509 23.7989C28.9714 23.9589 29.3463 24.0274 29.6389 24.0503L29.6914 24.0549C31.1086 22.5143 32 19.5337 32 17.0446C32 15.3669 31.5954 13.712 30.896 12.3086L30.7154 12.3429C29.5269 12.5486 28.5806 13.4491 28.3131 14.624L28.2583 14.8571C27.2343 19.3531 20.8183 19.3257 19.8331 14.8206L19.7897 14.624ZM14.5714 10.5486C14.1035 9.82417 13.8546 8.9801 13.8546 8.11771C13.8546 7.25532 14.1035 6.41125 14.5714 5.68685V4.49828C13.7777 3.56536 12.7169 2.89848 11.5321 2.58768C10.3473 2.27689 9.09569 2.33715 7.94625 2.76034C6.79682 3.18353 5.80493 3.94925 5.10454 4.95411C4.40414 5.95897 4.02898 7.15456 4.02971 8.37942V8.384C4.11886 9.27542 4.48229 9.93828 4.90286 10.4183C5.42629 11.0149 5.97714 11.2594 6.10743 11.2869C6.29053 11.3284 6.46365 11.4057 6.6169 11.5141C6.77015 11.6226 6.90054 11.7602 7.00062 11.9191C7.10069 12.0779 7.1685 12.255 7.20016 12.44C7.23182 12.6251 7.22672 12.8146 7.18514 12.9977C7.14357 13.1808 7.06634 13.3539 6.95786 13.5072C6.84938 13.6604 6.71178 13.7908 6.55292 13.8909C6.39405 13.991 6.21703 14.0588 6.03195 14.0904C5.84688 14.1221 5.65739 14.117 5.47429 14.0754C4.65143 13.8857 3.6 13.264 2.75429 12.304C2.41137 11.913 2.11739 11.4816 1.87886 11.0194C0.713143 12.6309 0 14.8183 0 17.0446C0 18.7246 0.406857 20.6286 1.104 22.16C1.28686 21.9528 1.48495 21.7669 1.69829 21.6023C1.84425 21.4762 2.01425 21.381 2.19802 21.3223C2.38179 21.2637 2.57553 21.2429 2.76755 21.2612C2.95958 21.2795 3.14592 21.3364 3.31532 21.4287C3.48473 21.5209 3.63371 21.6465 3.75326 21.7979C3.87282 21.9493 3.96048 22.1233 4.01096 22.3095C4.06144 22.4956 4.0737 22.6901 4.04699 22.8811C4.02028 23.0722 3.95516 23.2558 3.85555 23.421C3.75594 23.5862 3.62392 23.7295 3.46743 23.8423C3.06057 24.1646 2.63543 24.8571 2.37486 25.6594C2.57333 26.9875 3.15776 28.228 4.0555 29.2266C4.95324 30.2253 6.1247 30.9381 7.42424 31.2763C8.72378 31.6146 10.0941 31.5635 11.3648 31.1293C12.6355 30.6951 13.7506 29.897 14.5714 28.8343V20.4457C13.6513 21.1901 12.5365 21.6543 11.36 21.7829C11.1734 21.8037 10.9846 21.7876 10.8043 21.7355C10.6239 21.6834 10.4556 21.5963 10.309 21.4791C10.1623 21.3619 10.0402 21.217 9.9495 21.0527C9.85883 20.8883 9.80143 20.7077 9.78057 20.5211C9.75971 20.3346 9.7758 20.1458 9.82791 19.9654C9.88003 19.7851 9.96716 19.6168 10.0843 19.4701C10.2015 19.3235 10.3464 19.2013 10.5107 19.1106C10.6751 19.02 10.8557 18.9626 11.0423 18.9417C12.2057 18.8137 13.0514 18.144 13.6549 17.264C14.2674 16.3726 14.5326 15.3943 14.5714 14.9257V10.5486Z" fill="#0D1216"/>
</g>
<defs>
<clipPath id="clip0_0_86">
<rect width="32" height="32" fill="white"/>
</clipPath>
</defs>
</svg>
