<svg preserveAspectRatio="none" overflow="visible" style="display: block;" width="32" height="32" viewBox="0 0 32 32" fill="none" xmlns="http://www.w3.org/2000/svg">
<g id="Streamline / target-solid" clip-path="url(#clip0_0_158)">
<path id="Streamline / target-solid / Shape" fill-rule="evenodd" clip-rule="evenodd" d="M26.2514 0.866285C26.2027 0.669781 26.1026 0.489755 25.9614 0.344624C25.8203 0.199493 25.6431 0.0944675 25.448 0.040292C25.2529 -0.0138834 25.047 -0.015264 24.8512 0.0362916C24.6554 0.0878471 24.4768 0.190488 24.3337 0.333714L19.7623 4.90514C19.6229 5.04485 19.522 5.21829 19.4695 5.40855C19.4171 5.59882 19.4148 5.79943 19.4629 5.99086L20.2857 9.29143L20.2537 9.32343L14.7886 14.7886C14.4858 15.1135 14.3209 15.5434 14.3287 15.9875C14.3366 16.4316 14.5165 16.8553 14.8306 17.1694C15.1447 17.4835 15.5684 17.6634 16.0125 17.6713C16.4566 17.6791 16.8865 17.5142 17.2114 17.2114L22.6811 11.7486L22.7131 11.7143L26.0114 12.5394C26.2029 12.5875 26.4035 12.5852 26.5937 12.5327C26.784 12.4803 26.9574 12.3794 27.0971 12.24L31.6686 7.66857C31.8124 7.52553 31.9155 7.34679 31.9675 7.1507C32.0194 6.95461 32.0181 6.74824 31.9639 6.55278C31.9097 6.35732 31.8044 6.17981 31.6589 6.03848C31.5134 5.89715 31.333 5.79709 31.136 5.74857L27.2297 4.77486L26.2514 0.866285ZM16.7246 1.73486C16.756 2.18827 16.606 2.6356 16.3077 2.9785C16.0094 3.3214 15.5871 3.53179 15.1337 3.56343C12.7456 3.72893 10.4552 4.57653 8.53463 6.00552C6.61409 7.4345 5.14414 9.3848 4.29946 11.6247C3.45478 13.8645 3.27087 16.2998 3.76959 18.6411C4.26831 20.9825 5.4287 23.1314 7.11286 24.8326C8.79703 26.5338 10.9342 27.7158 13.2704 28.238C15.6065 28.7603 18.0435 28.6009 20.2918 27.7788C22.5401 26.9568 24.5051 25.5065 25.9533 23.6004C27.4016 21.6944 28.2722 19.4126 28.4617 17.0263C28.4978 16.5728 28.7125 16.1523 29.0586 15.8572C29.4048 15.562 29.854 15.4165 30.3074 15.4526C30.7609 15.4886 31.1814 15.7034 31.4765 16.0495C31.7717 16.3956 31.9172 16.8448 31.8811 17.2983C31.6393 20.3388 30.5296 23.2459 28.6841 25.6744C26.8386 28.1028 24.3348 29.9504 21.4701 30.9977C18.6055 32.045 15.5004 32.2479 12.5238 31.5824C9.54715 30.9169 6.82414 29.4109 4.67825 27.2434C2.53236 25.0758 1.05378 22.3378 0.418196 19.3547C-0.217391 16.3715 0.0167263 13.2686 1.09273 10.4146C2.16874 7.56061 4.0414 5.07547 6.48824 3.25444C8.93507 1.43342 11.8532 0.353056 14.896 0.141714C15.3494 0.110311 15.7967 0.260252 16.1396 0.558572C16.4825 0.856891 16.6929 1.28146 16.7246 1.73486ZM15.1886 9.27314C15.2707 9.4828 15.3107 9.70659 15.3064 9.93173C15.302 10.1569 15.2533 10.3789 15.1631 10.5852C15.0729 10.7916 14.9429 10.9781 14.7806 11.1342C14.6183 11.2902 14.4268 11.4128 14.2171 11.4949C13.4675 11.7889 12.803 12.2651 12.2836 12.8804C11.7643 13.4958 11.4064 14.2308 11.2425 15.0192C11.0785 15.8076 11.1136 16.6243 11.3445 17.3957C11.5755 18.1671 11.995 18.8688 12.5652 19.4374C13.1354 20.0059 13.8383 20.4234 14.6104 20.6521C15.3824 20.8808 16.1993 20.9135 16.9872 20.7472C17.7751 20.581 18.5091 20.221 19.1229 19.6998C19.7367 19.1787 20.211 18.5128 20.5029 17.7623C20.5845 17.5525 20.7067 17.3608 20.8624 17.1982C21.0181 17.0356 21.2043 16.9053 21.4104 16.8146C21.6165 16.724 21.8385 16.6748 22.0635 16.67C22.2886 16.6651 22.5125 16.7046 22.7223 16.7863C22.9321 16.8679 23.1238 16.9901 23.2864 17.1458C23.449 17.3015 23.5793 17.4878 23.6699 17.6939C23.7606 17.9 23.8097 18.1219 23.8146 18.347C23.8194 18.5721 23.7799 18.7959 23.6983 19.0057C23.1998 20.2873 22.3897 21.4244 21.3414 22.3142C20.293 23.2041 19.0394 23.8187 17.6939 24.1024C16.3484 24.3861 14.9534 24.3299 13.635 23.9391C12.3166 23.5482 11.1164 22.8349 10.1429 21.8637C9.16945 20.8925 8.45336 19.694 8.05941 18.3766C7.66546 17.0591 7.60607 15.6642 7.8866 14.318C8.16713 12.9719 8.77875 11.7168 9.66615 10.6664C10.5535 9.61594 11.6888 8.80323 12.9691 8.30171C13.3923 8.13654 13.8637 8.14607 14.2799 8.32821C14.696 8.51035 15.0228 8.85021 15.1886 9.27314Z" fill="#0D1216"/>
</g>
<defs>
<clipPath id="clip0_0_158">
<rect width="32" height="32" fill="white"/>
</clipPath>
</defs>
</svg>
