<svg preserveAspectRatio="none" overflow="visible" style="display: block;" width="67.0312" height="55.8594" viewBox="0 0 67.0312 55.8594" fill="none" xmlns="http://www.w3.org/2000/svg">
<g id="Group">
<path id="Vector" d="M27.5 0H3.4375C1.54206 0 0 1.54206 0 3.4375V25.7812C0 27.6767 1.54206 29.2188 3.4375 29.2188H17.6799C16.0691 37.1238 9.00745 42.9688 0.859375 42.9688C0.631455 42.9688 0.412869 43.0593 0.251705 43.2205C0.090541 43.3816 0 43.6002 0 43.8281V55C0 55.2279 0.090541 55.4465 0.251705 55.6077C0.412869 55.7688 0.631455 55.8594 0.859375 55.8594C17.4445 55.8594 30.9375 42.3663 30.9375 25.7812V3.4375C30.9375 1.54206 29.3954 0 27.5 0ZM29.2188 25.7812C29.2188 41.1314 16.9605 53.6721 1.71875 54.1279V44.6681C5.98985 44.4749 10.0684 42.8354 13.2847 40.0185C16.6865 37.0391 18.9119 32.9417 19.5515 28.4814C19.569 28.3595 19.5602 28.2352 19.5255 28.117C19.4908 27.9988 19.4311 27.8894 19.3504 27.7963C19.2697 27.7033 19.17 27.6286 19.0579 27.5775C18.9458 27.5263 18.824 27.4999 18.7009 27.5H3.4375C2.48978 27.5 1.71875 26.729 1.71875 25.7812V3.4375C1.71875 2.48978 2.48978 1.71875 3.4375 1.71875H27.5C28.4477 1.71875 29.2188 2.48978 29.2188 3.4375V25.7812ZM63.5938 0H39.5312C37.6358 0 36.0938 1.54206 36.0938 3.4375V25.7812C36.0938 27.6767 37.6358 29.2188 39.5312 29.2188H53.7744C52.1635 37.1238 45.1017 42.9688 36.9531 42.9688C36.7252 42.9688 36.5066 43.0593 36.3455 43.2205C36.1843 43.3816 36.0938 43.6002 36.0938 43.8281V55C36.0938 55.2279 36.1843 55.4465 36.3455 55.6077C36.5066 55.7688 36.7252 55.8594 36.9531 55.8594C53.5382 55.8594 67.0312 42.3663 67.0312 25.7812V3.4375C67.0312 1.54206 65.4894 0 63.5938 0ZM65.3125 25.7812C65.3125 41.1314 53.0542 53.6721 37.8125 54.1279V44.6681C42.0837 44.475 46.1624 42.8354 49.3788 40.0185C52.7808 37.0391 55.0064 32.9417 55.6459 28.4814C55.6634 28.3595 55.6545 28.2352 55.6197 28.1171C55.585 27.9989 55.5253 27.8896 55.4446 27.7965C55.364 27.7035 55.2642 27.6288 55.1522 27.5777C55.0402 27.5265 54.9185 27.5 54.7953 27.5H39.5312C38.5835 27.5 37.8125 26.729 37.8125 25.7812V3.4375C37.8125 2.48978 38.5835 1.71875 39.5312 1.71875H63.5938C64.5415 1.71875 65.3125 2.48978 65.3125 3.4375V25.7812Z" fill="#F3F7C0"/>
</g>
</svg>
